# xmcd
#
# Track frame offsets: 
#        150
#        20779
#        33415
#        48243
#        64036
#        82089
#        92239
#        107588
#        134086
#        146211
#        159745
#        174107
#        191464
#        203483
#        214658
#        239047
#        251468
#        268316
#
# Disc length: 3806 seconds
#
# Revision: 0
# Processed by: cddbd v1.5.2PL0 Copyright (c) Steve Scherf et al.
# Submitted via: ExactAudioCopy v0.99pb4
#
DISCID=0c0edc12
DTITLE=Various Artist - Het Beste Uit 25 Jaar Funiculi Funicula - CD 1
DYEAR=2016
DGENRE=Chamber Music
TTITLE0=José Carreras and Sarah Brightman - Amigos Para Siempre (Friends
TTITLE0=For Life)
TTITLE1=Los Sabandenos - El Amor Es Algo Maravilloso
TTITLE2=Malando And His Tango Orchestra - Olé Guapa
TTITLE3=Nana Mouskouri - No Me Quieras Tanto
TTITLE4=Manuel and His Music Of The Mountains - Rodrigo's Guitar Concert
TTITLE4=o De Aranjuez
TTITLE5=Victor Silvester - Around The World (From 'Around The World In
TTITLE5=80 Days')
TTITLE6=Jerry Vale - All Dressed Up With A Broken Heart
TTITLE7=Thomas Hampson, London Symphony Orchestra - Night And Day
TTITLE8=James Last Band - A Man And A Woman
TTITLE9=Al Martino - Till
TTITLE10=Matt Monro - Fly Me To The Moon
TTITLE11=Mischa Maisky, Martha Argerich and Nelson Freire - Le Cygne (Fr
TTITLE11=om 'Le Carnaval Des Animaux')
TTITLE12=Marc Brillouet and The City Of Prague Philharmonic Orchestra - 
TTITLE12=Voor Een Dag Van Morgen and Love Theme (From 'The Scarlet Lette
TTITLE12=r')
TTITLE13=Clannad - Theme From Harry's Game
TTITLE14=I Muvrini - A Te Corsica
TTITLE15=Stef Bos - Verstild In Steen
TTITLE16=Jan Mulder - Happy Hearts
TTITLE17=Engelbert Humperdinck - From Here To Eternity
EXTD=
EXTT0=
EXTT1=
EXTT2=
EXTT3=
EXTT4=
EXTT5=
EXTT6=
EXTT7=
EXTT8=
EXTT9=
EXTT10=
EXTT11=
EXTT12=
EXTT13=
EXTT14=
EXTT15=
EXTT16=
EXTT17=
PLAYORDER=
